# xmcd
#
# Track frame offsets: 
#        150
#        15795
#        32231
#        46285
#        65552
#        81867
#        96791
#        112969
#        127855
#        141764
#
# Disc length: 2116 seconds
#
# Revision: 0
# Processed by: cddbd v1.5.2PL0 Copyright (c) Steve Scherf et al.
# Submitted via: ExactAudioCopy v1.0b3
#
DISCID=7608420a
DTITLE=Smokehouse - Let's Swamp Awhile
DYEAR=1991
DGENRE=Swamp Blues
TTITLE0=It's Going On
TTITLE1=Braggin' 'Bout You Baby
TTITLE2=Big Mistake
TTITLE3=Fork In The Road
TTITLE4=Sweet Little Woman
TTITLE5=I Didn't Know
TTITLE6=Poontang Blues
TTITLE7=Evil Woman
TTITLE8=Skin It Back
TTITLE9=The Day Jack Frost Killed Parson Brown
EXTD=
EXTT0=
EXTT1=
EXTT2=
EXTT3=
EXTT4=
EXTT5=
EXTT6=
EXTT7=
EXTT8=
EXTT9=
PLAYORDER=
